<svg xmlns="http://www.w3.org/2000/svg" viewBox="0 0 318.1 365.7" fill="#3a3a3a"><path d="M49,209.8a7.5,7.5,0,0,1-5.7-2.3l-41-41a8,8,0,0,1,0-11.3l41-41a8,8,0,1,1,11.3,11.3L19.3,160.9l35.3,35.3A7.9,7.9,0,0,1,49,209.8Z"/><path d="M136.9 168.9H8a8 8 0 0 1 0-16h128.9a8 8 0 0 1 0 16zM317.1 4.2a7.6 7.6 0 0 0-5.4-4 5.5 5.5 0 0 0-1.8-.2H111.6a8 8 0 0 0-8 8v81.8a8 8 0 0 0 16 0V16h135.9l-92.8 27.8a7.9 7.9 0 0 0-5.7 7.6v254.9h-37.4v-70.6a8 8 0 0 0-16 0v78.6a8 8 0 0 0 8 8H157v35.4a8.1 8.1 0 0 0 3.2 6.4 8.2 8.2 0 0 0 7.1 1.3l145.1-43.5a7.9 7.9 0 0 0 5.7-7.6V8.2a7.9 7.9 0 0 0-1-4zm-15 304.1L173 347V57.4l129.1-38.7zm-94.3-107.5a23 23 0 1 0-22.9-22.9 22.9 22.9 0 0 0 22.9 22.9zm0-29.9a7 7 0 0 1 0 14 7 7 0 0 1 0-14z"/></svg>