<svg xmlns="http://www.w3.org/2000/svg" viewBox="0 0 395 281.5" fill="#3a3a3a"><path d="M44.4 123.1a7.1 7.1 0 0 0 0 10.1 7.2 7.2 0 0 0 5.1 2.2 7.4 7.4 0 0 0 5.1-2.2c78.8-78.8 207-78.8 285.8 0a7.2 7.2 0 0 0 10.2-10.1c-84.4-84.4-221.8-84.4-306.2 0zm153.1-3.5a155.5 155.5 0 0 0-110.8 45.8 7.1 7.1 0 0 0 0 10.1 7.2 7.2 0 0 0 10.2 0 142.4 142.4 0 0 1 201.2 0 7.4 7.4 0 0 0 5.1 2.2 7.2 7.2 0 0 0 5.1-2.2 7.1 7.1 0 0 0 0-10.1 155.5 155.5 0 0 0-110.8-45.8zm0 67.6a47.2 47.2 0 1 0 47.1 47.1 47.1 47.1 0 0 0-47.1-47.1zm0 79.9a32.8 32.8 0 1 1 32.7-32.8 32.8 32.8 0 0 1-32.7 32.8zM392.9 80.8a276.7 276.7 0 0 0-390.8 0A7.212 7.212 0 1 0 12.3 91a262.2 262.2 0 0 1 370.4 0 7.1 7.1 0 0 0 5.1 2.1 7.2 7.2 0 0 0 5.1-12.3z"/></svg>