<svg id="Calque_1" data-name="Calque 1" xmlns="http://www.w3.org/2000/svg" viewBox="0 0 276.94 54.97"><title>le-5-logo-black</title><path d="M1.38,23.87V2.54H3.61V21.93h9.93v1.94Z" transform="translate(-1.38 -2.21)"/><path d="M21.1,23.87V2.54H32.23V4.48H23.34v7.66h7.29v2H23.34V22H33.4V23.9Z" transform="translate(-1.38 -2.21)"/><path d="M69.94,5.75a11.44,11.44,0,0,0-5.55-1.4c-4.74,0-9.09,3.34-9.09,8.89s4.28,8.9,9.09,8.9a10.87,10.87,0,0,0,5.69-1.34l-.24,2.11a11.07,11.07,0,0,1-5.65,1.17C58.51,24.08,53,20,53,13.22S58.54,2.35,64.19,2.35a12.89,12.89,0,0,1,6.22,1.4Z" transform="translate(-1.38 -2.21)"/><path d="M79.47,23.87V2.54h2.24V23.87Z" transform="translate(-1.38 -2.21)"/><path d="M109.53,24.21,99.1,12.34c-1.74-2-3.71-4.35-5.18-6.16h-.07c.07,2,.07,3.94.07,5.88V23.87H91.67V2.54h1.58l9.89,11.3c1.44,1.64,3.41,4,4.82,5.72H108C108,17.66,108,15.75,108,14V2.54h2.24V24.21Z" transform="translate(-1.38 -2.21)"/><path d="M141,27.78a6,6,0,0,1-1.58.24,12.13,12.13,0,0,1-6.27-1.88c-1.68-.87-3.15-1.57-4.15-2a11,11,0,1,1,12.24-11,10.33,10.33,0,0,1-9.13,10.57v.06a10.22,10.22,0,0,1,2.57.91,11.38,11.38,0,0,0,5.18,1.5,6.68,6.68,0,0,0,2.68-.53ZM130,4.18a9.06,9.06,0,1,0,9,9.12v-.06a8.82,8.82,0,0,0-8.53-9.1h-.4Z" transform="translate(-1.38 -2.21)"/><path d="M179,5.75a11.55,11.55,0,0,0-5.55-1.4c-4.75,0-9.1,3.34-9.1,8.89s4.23,8.9,9,8.9a10.84,10.84,0,0,0,5.68-1.34l-.23,2.11a11.07,11.07,0,0,1-5.65,1.17c-5.69,0-11.17-4.11-11.17-10.86s5.52-10.88,11.17-10.88a13.15,13.15,0,0,1,6.22,1.4Z" transform="translate(-1.38 -2.21)"/><path d="M197.59,24.24a11,11,0,1,1,.26,0Zm0-20.06a9.06,9.06,0,1,0,8.89,9.23v-.17a8.83,8.83,0,0,0-8.54-9.1h-.35Z" transform="translate(-1.38 -2.21)"/><path d="M223,23.87h-5.58V2.54H223c6.45,0,11.84,3.88,11.84,10.67S229.51,23.87,223,23.87Zm-.33-19.39h-3V22h3c5.65,0,9.86-3,9.86-8.73s-4.17-8.76-9.82-8.76Z" transform="translate(-1.38 -2.21)"/><path d="M243.62,23.87V2.54h11.13V4.48h-8.89v7.66h7.29v2h-7.29V22h10.07V23.9Z" transform="translate(-1.38 -2.21)"/><path d="M271,4.48V23.87h-2.24V4.48h-7.32V2.54h16.86V4.48Z" transform="translate(-1.38 -2.21)"/><path d="M109.33,51.59l-2.93,2.13,1.13,3.46L104.59,55l-2.94,2.1,1.13-3.46-2.92-2.13h3.61l1.12-3.41,1.12,3.44Z" transform="translate(-1.38 -2.21)"/><path d="M126.73,51.59l-2.93,2.13,1.12,3.42L122,55l-3,2.1,1.13-3.46-2.93-2.13h3.62L122,48.14l1.12,3.44Z" transform="translate(-1.38 -2.21)"/><path d="M144.26,51.59l-2.93,2.13,1.13,3.46L139.52,55l-2.94,2.1,1.13-3.46-2.92-2.13h3.61l1.12-3.41,1.12,3.44Z" transform="translate(-1.38 -2.21)"/><path d="M161.79,51.59l-2.93,2.13L160,57.14,157,55l-2.91,2.1,1.13-3.46-2.92-2.13h3.61L157,48.14l1.12,3.44Z" transform="translate(-1.38 -2.21)"/><path d="M179.32,51.59l-2.93,2.13,1.13,3.42L174.58,55l-2.94,2.14,1.13-3.46-2.92-2.13h3.61l1.12-3.41,1.12,3.44Z" transform="translate(-1.38 -2.21)"/></svg>