<svg xmlns="http://www.w3.org/2000/svg" viewBox="0 0 465.05 94.68"><title>Asset 1</title><path d="M146.44,56.82c-7.73,2.41-16.11,7.45-19.9,10l12.21-25.47A60,60,0,0,0,146,39.5c6.5-2,16-5.78,22.49-11.59l-.8-.83c-6.53,5.81-15.75,9.49-22,11.43a66.28,66.28,0,0,1-7.72,2L124.6,68.35l.64.75c1.93-1.55,12.19-8.38,21.51-11.29,7.36-2.3,14.23-2.28,16.28,4.34,3.52,11.28-5.92,22.43-18.92,26.49-14.22,4.43-32.75.26-43.41-22.26l-.1.06L88,73.05C72.44,81.29,44.82,93.62,24.91,93.62,11.16,93.62,1,87.71,1,70.49,1,42.36,36.21,1,78.48,1c8.86,0,13,4.12,13.74,10.28C66.75,20.9,46.75,44,46.75,54.18c0,3.47,1.94,5.39,6.43,5.39,18.88,0,40.33-28.39,40.33-45.86A7.78,7.78,0,0,0,93.39,12c3-1,5.9-1.93,9-2.69l-.26-1a74.1,74.1,0,0,0-8.86,2.57C92.37,4.5,87.87,0,78.5,0,35.72,0,0,41.88,0,70.53c0,18,10.66,24.15,24.93,24.15,20.16,0,47.92-12.33,63.59-20.55l11.79-6.19c10.91,22.11,29.75,26.2,44.13,21.71,13.49-4.2,23.27-16,19.59-27.77C161.75,54.48,154.29,54.35,146.44,56.82Zm-54-43.11c0,17-20.94,44.83-39.31,44.83-3.73,0-5.39-1.67-5.39-4.36,0-9.89,19.78-32.25,44.7-41.75Z" fill="#fff"/><path d="M188.11,56.08V34.75h2.23V54.14h9.93v1.94Z" fill="#fff"/><path d="M207.83,56.08V34.75H219v1.94h-8.89v7.66h7.29v2h-7.29v7.82h10.06v1.94Z" fill="#fff"/><path d="M256.67,38a11.44,11.44,0,0,0-5.55-1.4c-4.74,0-9.09,3.34-9.09,8.89s4.28,8.9,9.09,8.9A10.87,10.87,0,0,0,256.81,53l-.24,2.11a11.07,11.07,0,0,1-5.65,1.17c-5.68,0-11.16-4.11-11.16-10.86s5.51-10.87,11.16-10.87a12.89,12.89,0,0,1,6.22,1.4Z" fill="#fff"/><path d="M266.2,56.08V34.75h2.24V56.08Z" fill="#fff"/><path d="M296.26,56.42,285.83,44.55c-1.74-2-3.71-4.35-5.18-6.16h-.07c.07,2,.07,3.94.07,5.88V56.08H278.4V34.75H280l9.89,11.3c1.44,1.64,3.41,4,4.82,5.72h.07c-.07-1.9-.07-3.81-.07-5.61V34.75h2.24V56.42Z" fill="#fff"/><path d="M327.75,60a6,6,0,0,1-1.58.24,12.13,12.13,0,0,1-6.27-1.88c-1.68-.87-3.15-1.57-4.15-2a11,11,0,1,1,12.24-11,10.33,10.33,0,0,1-9.13,10.57V56a10.22,10.22,0,0,1,2.57.91,11.38,11.38,0,0,0,5.18,1.5,6.68,6.68,0,0,0,2.68-.53Zm-11-23.6a9.06,9.06,0,1,0,9,9.12v-.06a8.82,8.82,0,0,0-8.53-9.1h-.4Z" fill="#fff"/><path d="M365.75,38a11.55,11.55,0,0,0-5.55-1.4c-4.75,0-9.1,3.34-9.1,8.89s4.23,8.9,9,8.9A10.84,10.84,0,0,0,365.83,53l-.23,2.11A11.07,11.07,0,0,1,360,56.29c-5.69,0-11.17-4.11-11.17-10.86S354.3,34.55,360,34.55a13.15,13.15,0,0,1,6.22,1.4Z" fill="#fff"/><path d="M384.32,56.45a11,11,0,1,1,.26,0Zm0-20.06a9.06,9.06,0,1,0,8.89,9.23v-.17a8.83,8.83,0,0,0-8.54-9.1h-.35Z" fill="#fff"/><path d="M409.75,56.08h-5.58V34.75h5.58c6.45,0,11.84,3.88,11.84,10.67S416.24,56.08,409.75,56.08Zm-.33-19.39h-3V54.18h3c5.65,0,9.86-3,9.86-8.73s-4.17-8.76-9.82-8.76Z" fill="#fff"/><path d="M430.35,56.08V34.75h11.13v1.94h-8.89v7.66h7.29v2h-7.29v7.82h10.07v1.94Z" fill="#fff"/><path d="M457.75,36.69V56.08h-2.24V36.69h-7.32V34.75h16.86v1.94Z" fill="#fff"/><path d="M296.06,83.8l-2.93,2.13,1.13,3.46-2.94-2.14-2.94,2.1,1.13-3.46-2.92-2.13h3.61l1.12-3.41,1.12,3.44Z" fill="#fff"/><path d="M313.46,83.8l-2.93,2.13,1.12,3.42-2.9-2.1-3,2.1,1.13-3.46L304,83.76h3.62l1.18-3.41,1.12,3.44Z" fill="#fff"/><path d="M331,83.8l-2.93,2.13,1.13,3.46-2.94-2.14-2.94,2.1,1.13-3.46-2.92-2.13h3.61l1.12-3.41,1.12,3.44Z" fill="#fff"/><path d="M348.52,83.8l-2.93,2.13,1.16,3.42-3-2.1-2.91,2.1L342,85.89l-2.92-2.13h3.61l1.09-3.41,1.12,3.44Z" fill="#fff"/><path d="M366.05,83.8l-2.93,2.13,1.13,3.42-2.94-2.14-2.94,2.14,1.13-3.46-2.92-2.13h3.61l1.12-3.41,1.12,3.44Z" fill="#fff"/></svg>