<svg xmlns="http://www.w3.org/2000/svg" viewBox="0 0 327.94 112.35"><title>Asset 1</title><path d="M164,21.87c-9.25,0-19.18,2.23-24.73,4.73,0,4.07,0,8.06,0,20.5,0,20.67,18.84,27.16,24.71,28.7,7.84-2.21,13.69-5.65,17.93-10.41a26.66,26.66,0,0,0,6.79-18.29c0-12.44,0-16.29,0-20.5C182.85,24,172.85,21.87,164,21.87M187.44,47.1c0,13.39-8.7,23.26-23.47,27.4-7.38-2.1-23.46-8.9-23.46-27.4,0-10.8,0-17.93,0-19.67,10.11-4.16,22-4.3,23.48-4.31s13.37.15,23.48,4.31c0,1.74,0,8.87,0,19.67" fill="#425865"/><path d="M141.74,47.32l2.6-2.68,2.74,2.84,2.75-2.82,2.75,2.83,2.73-2.85,2.75,2.83,2.74-2.88,2.6,2.75v-23c-4.25,0-14.91,1-21.67,3.84,0,5.58,0,14.14,0,19.17" fill="#425865"/><path d="M164.54,73.08c20.65-6.26,21.71-21.62,21.71-25.52,0-3.28,0-12.43,0-19.37-7-3-18-3.8-21.7-3.87Zm13.09-32.71c.13,1.85,1.34,3.29,2.81,3.29s2.67-1.44,2.8-3.29a3.63,3.63,0,1,1-5.61,0m.48,8.36a3.62,3.62,0,1,1-5.61,0c.13,1.84,1.34,3.28,2.81,3.28s2.67-1.44,2.8-3.28m-10.85-8c.13,1.85,1.33,3.29,2.8,3.29s2.68-1.44,2.81-3.29a3.63,3.63,0,1,1-5.61,0" fill="#425865"/><path d="M171,14.51a1.88,1.88,0,0,1-.12-.18,2.46,2.46,0,0,1-.32-1.85,2.42,2.42,0,0,1,1.28-1.63,1.22,1.22,0,0,1-.12-.19,2.36,2.36,0,0,1-.37-1.11c-1.59-.17-3.26-.29-5-.37a2.48,2.48,0,0,1-.15.41,0,0,0,0,0,0,0,2.4,2.4,0,0,1-.64.81,2.43,2.43,0,0,1,0,3.76,2.42,2.42,0,0,1,.89,1.88,2.45,2.45,0,0,1-.43,1.38c1,.05,2.39.13,3.93.26a2.42,2.42,0,0,1,1.11-3.2" fill="#425865"/><path d="M162.41,10.43a2.4,2.4,0,0,1-.64-.81s0,0,0,0a3,3,0,0,1-.15-.42c-1.79.08-3.46.2-5.05.37a2.44,2.44,0,0,1-.37,1.12l-.12.18a2.44,2.44,0,0,1,1.28,1.63,2.5,2.5,0,0,1-.31,1.85l-.13.18a2.42,2.42,0,0,1,1.11,3.2c1.54-.13,2.9-.21,3.93-.26a2.43,2.43,0,0,1,.46-3.26,2.43,2.43,0,0,1,0-3.76" fill="#425865"/><path d="M153.86,15.21a2.44,2.44,0,0,1-1.28-1.63,2.4,2.4,0,0,1,.31-1.85l.13-.18a2.4,2.4,0,0,1-1.2-1.36c-1.71.28-3.36.61-5,1a2.52,2.52,0,0,1-.27,1.11,2.45,2.45,0,0,1,1.58,3.25,1.24,1.24,0,0,1-.1.2,2.44,2.44,0,0,1,1.61,3.15c1.38-.29,2.82-.53,4.22-.72a2.35,2.35,0,0,1-.44-.93,2.41,2.41,0,0,1,.31-1.85l.13-.18" fill="#425865"/><path d="M164,14.75a1.32,1.32,0,1,0,1.31,1.32A1.32,1.32,0,0,0,164,14.75" fill="#425865"/><path d="M164,11a1.31,1.31,0,1,0,1.31,1.31A1.31,1.31,0,0,0,164,11" fill="#425865"/><path d="M164,7.24a1.31,1.31,0,1,0,1.31,1.31A1.31,1.31,0,0,0,164,7.24" fill="#425865"/><path d="M172.43,15.41a1.31,1.31,0,1,0,1,1.57,1.31,1.31,0,0,0-1-1.57" fill="#425865"/><path d="M173.27,11.75a1.31,1.31,0,0,0-1.57,1,1.31,1.31,0,1,0,1.57-1" fill="#425865"/><path d="M175.09,9.66a1.29,1.29,0,0,0-1-1.57,1.31,1.31,0,1,0-.59,2.55,1.29,1.29,0,0,0,1.57-1" fill="#425865"/><path d="M181.12,16.88a1.31,1.31,0,1,0,.69,1.72,1.32,1.32,0,0,0-.69-1.72" fill="#425865"/><path d="M182.6,13.43a1.31,1.31,0,0,0-1,2.41,1.32,1.32,0,0,0,1.72-.69,1.3,1.3,0,0,0-.69-1.72" fill="#425865"/><path d="M184.08,10a1.31,1.31,0,1,0,.69,1.72,1.31,1.31,0,0,0-.69-1.72" fill="#425865"/><path d="M155.51,15.41a1.31,1.31,0,1,0,1.57,1,1.3,1.3,0,0,0-1.57-1" fill="#425865"/><path d="M155.26,14.31a1.31,1.31,0,0,0-.59-2.56,1.31,1.31,0,0,0,.59,2.56" fill="#425865"/><path d="M154.41,10.64a1.31,1.31,0,1,0-1.57-1,1.31,1.31,0,0,0,1.57,1" fill="#425865"/><path d="M146.82,16.88a1.31,1.31,0,1,0,1.72.69,1.31,1.31,0,0,0-1.72-.69" fill="#425865"/><path d="M147.06,14.12a1.31,1.31,0,0,0-2.41,1,1.31,1.31,0,1,0,2.41-1" fill="#425865"/><path d="M145.58,10.66a1.31,1.31,0,1,0-2.41,1,1.31,1.31,0,0,0,2.41-1" fill="#425865"/><path d="M186.93,3.32a3.05,3.05,0,0,0-4,4.05c-2-.46-4-.83-5.83-1.13A3.09,3.09,0,0,0,178,4.67a3.05,3.05,0,1,0-5.58.91c-2.53-.3-4.65-.46-6.17-.54a3.05,3.05,0,1,0-4.62,0c-1.51.08-3.64.24-6.17.54a3.05,3.05,0,1,0-5.58-.91,3.09,3.09,0,0,0,.92,1.57c-1.84.3-3.8.67-5.83,1.13a3.05,3.05,0,1,0-1.58,1.56s0,0,.06,0h0a2.24,2.24,0,0,1,.89-.17,2.44,2.44,0,0,1,2.19,1.35c1.69-.38,3.38-.72,5.14-1a2.44,2.44,0,0,1,.35-1A2.47,2.47,0,0,1,153.58,7a2.46,2.46,0,0,1,2.81,1.46c1.62-.17,3.34-.29,5.18-.37a2.47,2.47,0,0,1,1.24-1.67h0l.2-.1h0l.18-.07h0l.19,0h0l.2,0h.56l.2,0h0l.19,0h0l.18.07h0l.2.1h0a2.44,2.44,0,0,1,1.24,1.67c1.84.08,3.56.2,5.18.37a2.44,2.44,0,0,1,2.27-1.52,2.64,2.64,0,0,1,.55.06,2.48,2.48,0,0,1,1.52,1.09,2.44,2.44,0,0,1,.35,1c1.76.29,3.45.63,5.14,1a2.43,2.43,0,0,1,2.19-1.35,2.24,2.24,0,0,1,.89.17h0s0,0,.06,0a3.05,3.05,0,0,0,2.41-5.61" fill="#425865"/><path d="M179.81,15.54a2.45,2.45,0,0,1,1.58-3.25,2.39,2.39,0,0,1-.27-1.11c-1.64-.38-3.29-.71-5-1a2.44,2.44,0,0,1-1.2,1.36l.13.18a2.4,2.4,0,0,1,.31,1.85,2.44,2.44,0,0,1-1.28,1.63l.13.18a2.41,2.41,0,0,1,.31,1.85,2.35,2.35,0,0,1-.44.93c1.4.19,2.83.43,4.22.72a2.41,2.41,0,0,1,.06-1.77,2.44,2.44,0,0,1,1.55-1.38,1.24,1.24,0,0,1-.1-.2" fill="#425865"/><polygon points="69.13 92.31 69.13 93.57 76.18 93.57 76.18 111.75 79.44 111.75 79.44 93.57 86.48 93.57 86.48 92.31 69.13 92.31" fill="#425865"/><path d="M131.86,110.05a7.39,7.39,0,0,0,2.59,1.58,10.07,10.07,0,0,0,3.56.58,11.45,11.45,0,0,0,3.88-.58,7.3,7.3,0,0,0,2.64-1.57,6.09,6.09,0,0,0,1.51-2.32,8.18,8.18,0,0,0,.49-2.81V92.32h-1.44v12.61a6.48,6.48,0,0,1-.42,2.34,5.77,5.77,0,0,1-1.2,1.92,5.42,5.42,0,0,1-1.9,1.29,6.78,6.78,0,0,1-5,0,5.61,5.61,0,0,1-3.13-3.21,6.28,6.28,0,0,1-.43-2.34V92.32h-3.26v12.54a7.6,7.6,0,0,0,.54,2.85,6.51,6.51,0,0,0,1.58,2.34" fill="#425865"/><path d="M90.91,108.23v3.52h13.5V110.5H94.17V99.62a11.49,11.49,0,0,1,1.69-.12c4.69,0,10.12,2.06,14.89,4.49l-3.65,7.76h1.63l3.07-6.48.27-.59a89.33,89.33,0,0,1,11,7.07h3.33l-9.16-19.88h-.81l-5.06,10.75C106.48,100.13,100.85,98,95.86,98a13.13,13.13,0,0,0-1.69.1V93.57h10.24V92.32H90.91v6.75a5.15,5.15,0,0,0-3.22,4.54,4.72,4.72,0,0,0,3.22,4.62M116,96.32l3.53,7.69.6,1.26,1.69,3.68a89.83,89.83,0,0,0-9.11-5.65Zm-25.09,4.45v5.82a3.14,3.14,0,0,1-1.73-3,3.42,3.42,0,0,1,1.73-2.84" fill="#425865"/><path d="M56.74,90.91l2.52-1.46a.56.56,0,0,1,.71,0l2.56,1.46a.31.31,0,0,0,.26-.32L60.08,88a.61.61,0,0,0-.92,0l-2.72,2.61a.3.3,0,0,0,.3.32" fill="#425865"/><path d="M13,112.35a12.51,12.51,0,0,0,10.64-6.22A17.44,17.44,0,0,0,22,105c-.74,1.67-3.62,5.56-7.73,5.56-5.22,0-10.4-3.67-10.4-10.89A10.36,10.36,0,0,1,14,88.88c5.15,0,7,4.06,7.9,5.66.83-.58,1.17-.78,1.72-1.17-1.38-2.27-4.81-6.21-10.4-6.21A12.93,12.93,0,0,0,0,99.59c0,9.8,8.15,12.76,13,12.76" fill="#425865"/><path d="M218.77,110.05a7.34,7.34,0,0,0,2.6,1.58,10,10,0,0,0,3.56.58,11.43,11.43,0,0,0,3.87-.58,7.3,7.3,0,0,0,2.64-1.57,6.12,6.12,0,0,0,1.52-2.32,8.17,8.17,0,0,0,.48-2.81V92.32H232v12.61a6.48,6.48,0,0,1-.42,2.34,5.77,5.77,0,0,1-1.2,1.92,5.42,5.42,0,0,1-1.9,1.29,6.78,6.78,0,0,1-5,0,5.65,5.65,0,0,1-1.91-1.29,5.82,5.82,0,0,1-1.22-1.92,6.48,6.48,0,0,1-.42-2.34V92.32h-3.27v12.54a7.6,7.6,0,0,0,.54,2.85,6.64,6.64,0,0,0,1.58,2.34" fill="#425865"/><path d="M175.23,111.09a8.76,8.76,0,0,0,3-1.8,7.62,7.62,0,0,0,1.86-2.68,8.52,8.52,0,0,0,.63-3.28,8.13,8.13,0,0,0-.7-3.39,7.86,7.86,0,0,0-2.11-2.73,7.47,7.47,0,0,0-3.06-1.52,17.53,17.53,0,0,0-4.39-.48H165v16.54h6.18a11.74,11.74,0,0,0,4.09-.66m-7.49-.55V96.43h3a7.12,7.12,0,0,1,2.72.52,6.39,6.39,0,0,1,3.53,3.63,7.74,7.74,0,0,1,.5,2.8,8.39,8.39,0,0,1-.53,3.08,6.52,6.52,0,0,1-1.45,2.25,6.13,6.13,0,0,1-2.15,1.37,7.48,7.48,0,0,1-2.64.46Z" fill="#425865"/><path d="M185.88,99.55a3.2,3.2,0,0,0,1-2.35,2.66,2.66,0,0,0-.14-.85,2.29,2.29,0,0,0-.4-.7,1.85,1.85,0,0,0-.58-.47A1.54,1.54,0,0,0,185,95a1.44,1.44,0,0,0-1,.36,1.24,1.24,0,0,0-.31.41,1.18,1.18,0,0,0-.11.5,1.4,1.4,0,0,0,.08.47,1,1,0,0,0,.23.38,1,1,0,0,0,.33.25.86.86,0,0,0,.39.09.84.84,0,0,0,.54-.17l.18-.11a.48.48,0,0,1,.22,0,.26.26,0,0,1,.23.17.84.84,0,0,1,.09.4,1.73,1.73,0,0,1-.18.76,2.45,2.45,0,0,1-.49.68,3.44,3.44,0,0,1-.73.56,3.37,3.37,0,0,1-.89.38v.49a3.64,3.64,0,0,0,1.26-.31,3.59,3.59,0,0,0,1-.72" fill="#425865"/><path d="M251.47,111a10.33,10.33,0,0,0,3.53-2.12,9,9,0,0,0,2.17-3.15,9.9,9.9,0,0,0,.75-3.85,9.52,9.52,0,0,0-.83-4,9.1,9.1,0,0,0-2.48-3.22A8.86,8.86,0,0,0,251,92.87a21,21,0,0,0-5.16-.55H239.4v19.43h7.26a13.79,13.79,0,0,0,4.81-.77m-8.8-.65V93.75h3.49a8.35,8.35,0,0,1,3.19.61,7.51,7.51,0,0,1,2.51,1.69,7.64,7.64,0,0,1,1.64,2.58,9,9,0,0,1,.58,3.29,9.71,9.71,0,0,1-.62,3.62,7.52,7.52,0,0,1-1.7,2.63,7.17,7.17,0,0,1-2.53,1.62,8.82,8.82,0,0,1-3.1.54Z" fill="#425865"/><rect x="283.36" y="92.31" width="3.27" height="19.44" fill="#425865"/><polygon points="292.94 92.31 292.94 111.75 306.44 111.75 306.44 110.5 296.2 110.5 296.2 101.78 303.05 101.78 303.05 100.52 296.2 100.52 296.2 93.57 306.44 93.57 306.44 92.31 292.94 92.31" fill="#425865"/><path d="M313.27,110.05a7.34,7.34,0,0,0,2.6,1.58,10,10,0,0,0,3.56.58,11.43,11.43,0,0,0,3.87-.58,7.3,7.3,0,0,0,2.64-1.57,6.12,6.12,0,0,0,1.52-2.32,8.17,8.17,0,0,0,.48-2.81V92.32H326.5v12.61a6.48,6.48,0,0,1-.42,2.34,5.77,5.77,0,0,1-1.2,1.92,5.42,5.42,0,0,1-1.9,1.29,6.78,6.78,0,0,1-5,0,5.65,5.65,0,0,1-1.91-1.29,5.82,5.82,0,0,1-1.22-1.92,6.48,6.48,0,0,1-.42-2.34V92.32h-3.27v12.54a7.6,7.6,0,0,0,.54,2.85,6.64,6.64,0,0,0,1.58,2.34" fill="#425865"/><path d="M266.63,102.61V93.53h2.87a4.44,4.44,0,0,1,1.65.29,3.74,3.74,0,0,1,1.29.82,3.58,3.58,0,0,1,.86,1.25,4.18,4.18,0,0,1,.3,1.6,3.78,3.78,0,0,1-.38,1.72,3.83,3.83,0,0,1-1.07,1.3,4.81,4.81,0,0,1-1.61.83,6.6,6.6,0,0,1-2,.29h-.37l7.53,10.12h3.78l-7.08-9.43a8.12,8.12,0,0,0,1.94-.72,6.19,6.19,0,0,0,1.51-1.1,4.7,4.7,0,0,0,1-1.43,4.15,4.15,0,0,0,.34-1.69,4.71,4.71,0,0,0-.44-2,4.44,4.44,0,0,0-1.33-1.61,6.43,6.43,0,0,0-2.2-1,11.25,11.25,0,0,0-3.07-.38h-6.73v19.44h3.27Z" fill="#425865"/><path d="M190.49,109.58l-1,2.17h1.76l3.82-8.08c6.17,1.22,14.42,8,14.51,8.08h3.81L202.05,87.16h-1l-7,14.87c-.26,0-.52,0-.77,0-3.28,0-4.76,2.3-4.76,3.93a4,4,0,0,0,2,3.66m10-17.5,7.71,16.77c-2.9-2.13-8.06-5.54-12.54-6.56Zm-7.25,11.4h.08l-2.23,4.75a2.56,2.56,0,0,1-1.12-2.31c0-.94.89-2.44,3.27-2.44" fill="#425865"/><path d="M29.55,108.3v3.45h3.26V99.69a20.47,20.47,0,0,1,2.92-.2,29,29,0,0,1,6.85.92v11.34h3.26V101.36a62.87,62.87,0,0,1,7.42,3l-3.48,7.37h1.64l3.07-6.48.1-.23a89,89,0,0,1,11.2,6.71h3.32L60,91.87h-.81L53.9,103a62.13,62.13,0,0,0-8.06-3.23V92.32H42.58v6.55A30.3,30.3,0,0,0,35.73,98a21.16,21.16,0,0,0-2.92.18V92.32H29.55v6.74a5,5,0,0,0-3.3,4.7c0,2.2,1.5,3.68,3.3,4.54m29.14-12L62.22,104l.6,1.26,1.75,3.82a89.81,89.81,0,0,0-9.34-5.43Zm-29.14,4.4v5.88a3.28,3.28,0,0,1,0-5.88" fill="#425865"/></svg>