<svg xmlns="http://www.w3.org/2000/svg" viewBox="0 0 360 330"><path d="M354,270h-6.7a41.8,41.8,0,0,0,.8-59.2,40.9,40.9,0,0,0-8.6-6.8A41.9,41.9,0,0,0,318,126H264V84a6,6,0,0,0-6-6h-.9L186,89V83.4A30,30,0,0,0,210,54c0-26.2-24.7-51.2-25.8-52.2a5.8,5.8,0,0,0-8.4,0c-1.1,1-25.8,26-25.8,52.2a30,30,0,0,0,24,29.4v7.5l-72.9,11.2A5.9,5.9,0,0,0,96,108v66.8a67.1,67.1,0,0,0-15-12,5.9,5.9,0,0,0-6,0,66.3,66.3,0,0,0-32.4,48.5A66.5,66.5,0,0,0,30,210a69.8,69.8,0,0,0-7.9.5,6,6,0,0,0-4.8,3.6A66,66,0,0,0,40.1,294H0v12H14.3l10.3,20.7A6,6,0,0,0,30,330H258a6,6,0,0,0,6-6V306h38.3l10.3,20.7A6,6,0,0,0,318,330h24a6,6,0,0,0,6-6V306h6a6,6,0,0,0,6-6V276a6,6,0,0,0-6-6Zm-6-30a30,30,0,0,1-30,30H210a30,30,0,0,1,0-60h78a18,18,0,0,1,0,36H228a6,6,0,0,1,0-12h42V222H228a18,18,0,0,0,0,36h60a30,30,0,0,0,30-30,29.5,29.5,0,0,0-6.2-18H318a30,30,0,0,1,30,30ZM300,138a18,18,0,0,1,0,36H240a6,6,0,0,1,0-12h42V150H240a18,18,0,0,0,0,36h60a30,30,0,0,0,24.5-47.3A30,30,0,0,1,318,198H234a30,30,0,0,1,0-60ZM162,54c0-15.3,11.6-31.3,18-39,6.5,7.7,18,23.6,18,39a17.9,17.9,0,0,1-12,16.9V60H174V70.9A17.9,17.9,0,0,1,162,54ZM78,175.1a54.1,54.1,0,0,1,23.7,39.6,66.2,66.2,0,0,0-23.6,16.1,66.2,66.2,0,0,0-23.8-16A54.3,54.3,0,0,1,78,175.1Zm30.1,50A52.3,52.3,0,0,1,126,222h3a54.1,54.1,0,0,1-33.1,68.8A52.3,52.3,0,0,1,78,294H75a54.1,54.1,0,0,1,33.1-68.8ZM24,240a54.2,54.2,0,0,1,3-17.9h3a53.4,53.4,0,0,1,40.5,18.4,65.5,65.5,0,0,0-8.6,51.2A54.2,54.2,0,0,1,24,240Zm98.3,78H33.7l-6-12H128.3Zm57.7,0H135.7l6-12H156V294H115.8a65.9,65.9,0,0,0,22.9-79.9,6,6,0,0,0-4.8-3.6,64.2,64.2,0,0,0-20.5.7,65.5,65.5,0,0,0-5.8-19.2h.4V113.1L252,91v35H234a41.9,41.9,0,0,0-29,72.3A41.9,41.9,0,0,0,180.7,270H174a6,6,0,0,0-6,6v24a6,6,0,0,0,6,6h6Zm26.3,0H192V306h20.3Zm45.7,0H219.7l6-12H252Zm84,0H321.7l-6-12H336Zm12-24H180V282H348Z" fill="#3a3a3a"/></svg>