<svg xmlns="http://www.w3.org/2000/svg" viewBox="0 0 257.9 384" fill="#3a3a3a"><path d="M97.7 81.1a8.1 8.1 0 0 0 5.9 7.7c12.8 3.5 14.1 4.8 17.7 17.7a7.9 7.9 0 0 0 15.3 0c3.6-12.9 4.9-14.2 17.7-17.7a8.1 8.1 0 0 0 5.9-7.7 7.9 7.9 0 0 0-5.9-7.7c-12.8-3.6-14.1-4.9-17.7-17.7a7.9 7.9 0 0 0-15.3 0c-3.6 12.8-4.9 14.1-17.7 17.7a7.9 7.9 0 0 0-5.9 7.7zm31.2-13c2.9 6.5 6.5 10.1 13 13-6.5 2.8-10.1 6.4-13 13-2.8-6.6-6.4-10.2-12.9-13 6.5-2.9 10.1-6.5 12.9-13zm27.7-34.2c10.2 2.8 11 3.6 13.8 13.9a7.6 7.6 0 0 0 14.6-.1c2.8-10.2 3.5-10.9 13.8-13.8a7.6 7.6 0 0 0 5.5-7.3 7.5 7.5 0 0 0-5.5-7.2c-10.3-2.9-11-3.6-13.8-13.9a7.6 7.6 0 0 0-14.6 0c-2.8 10.3-3.6 11-13.8 13.9a7.4 7.4 0 0 0-5.5 7.2 7.5 7.5 0 0 0 5.5 7.3zm21.1-15.6a18 18 0 0 0 8.3 8.3 18.3 18.3 0 0 0-8.3 8.4 18.3 18.3 0 0 0-8.3-8.4 18 18 0 0 0 8.3-8.3zM59 48.3c8.6 2.4 9.1 2.9 11.5 11.6a7.3 7.3 0 0 0 14.1 0c2.4-8.7 2.9-9.2 11.6-11.6a7.3 7.3 0 0 0 0-14.1c-8.7-2.4-9.2-2.9-11.6-11.5a7.3 7.3 0 0 0-14.1 0c-2.4 8.6-2.9 9.1-11.5 11.5a7.3 7.3 0 0 0 0 14.1zm18.6-12.8a15.1 15.1 0 0 0 5.7 5.8 15.6 15.6 0 0 0-5.7 5.7 16.7 16.7 0 0 0-5.8-5.7 16.1 16.1 0 0 0 5.8-5.8zm170.9 115.6h-13a36.1 36.1 0 0 0 7.2-21.8 38.9 38.9 0 0 0-10.6-26.5c-7.3-7.7-17.7-11.9-29.2-11.9-24.1 0-42 17.8-53.8 35.5a13.2 13.2 0 0 0-8.8-3.4h-22.7a12.7 12.7 0 0 0-8.8 3.5C93.3 103.2 74.7 90.9 55 90.9c-11.5 0-21.9 4.2-29.2 11.9a38.9 38.9 0 0 0-10.6 26.5 36.1 36.1 0 0 0 7.2 21.8h-13a9.4 9.4 0 0 0-9.4 9.4v48.2a9.4 9.4 0 0 0 9.4 9.4h6.4v154.7h1.1c-3.1 0-1.6 2.5-1.6 5.6s-1.5 5.6 1.6 5.6H241c3.1 0 2.6-2.5 2.6-5.6s.5-5.6-2.6-5.6h1.1V218.1h6.4a9.4 9.4 0 0 0 9.4-9.4v-48.2a9.4 9.4 0 0 0-9.4-9.4zm-132.8-15a1.9 1.9 0 0 1 1.9-1.8h22.7a1.9 1.9 0 0 1 1.9 1.8v15h-26.5zM11.2 206.8v-44.5H95v44.5zm87.9 166H27V218.1h72.1zm5.4-221.7H86.1l-22.6-22.9a5.7 5.7 0 0 0-8 0 5.6 5.6 0 0 0 0 7.9l14.8 15H38.6a24.8 24.8 0 0 1-3.6-2.8 25.2 25.2 0 0 1-8.5-19c0-17.7 14.7-27.2 28.5-27.2 22.7 0 39.4 21.1 49.5 38.9zm43.1 221.7h-37.3V218.1h37.3zm4-166h-45.3v-44.5h45.3zm1.8-65.8c10.1-17.8 26.8-38.9 49.5-38.9 18.5 0 28.5 14 28.5 27.2a25.2 25.2 0 0 1-8.5 19 24.8 24.8 0 0 1-3.6 2.8h-31.7l14.8-15a5.6 5.6 0 0 0 0-7.9 5.7 5.7 0 0 0-8 0l-22.6 22.9h-18.4zm77.5 231.8h-72.1V218.1h72.1v154.7zm15.7-166h-83.7v-44.5h83.7z"/></svg>